<?xml version="1.0" encoding="utf-8"?>
<svg version="1.1"
	 id="svg15" xmlns:cc="http://creativecommons.org/ns#" xmlns:dc="http://purl.org/dc/elements/1.1/" xmlns:rdf="http://www.w3.org/1999/02/22-rdf-syntax-ns#" xmlns:svg="http://www.w3.org/2000/svg"
	 xmlns="http://www.w3.org/2000/svg" xmlns:xlink="http://www.w3.org/1999/xlink" x="0px" y="0px" viewBox="0 0 112 94"
	 style="enable-background:new 0 0 112 94;" xml:space="preserve">
<style type="text/css">
	.st0{fill:#659CC1;}
	.st1{fill:#FEBB15;}
	.st2{fill:#EBAB13;}
</style>
<g id="Layer1000">
	<path id="path2" class="st0" d="M16.7,52.1c0.1-0.4,0.1-1,0.2-1.5c1.5-6.8,9.2-10.2,16.1-9.1c3.6,0.6,6.5,2.3,8.5,5.1
		c4.6,6.4,0.8,14.2-6.8,16.4c-9,2.7-19.9-3.3-20.8-11.9c-0.1-0.9-0.1-2.4,0.1-3.2c0.1-0.4,0.5-2.2,0.8-2.5c0.3,0.3,0.1,1.5,0.2,2
		c0,0.6,0.2,1.3,0.3,1.8C15.5,49.8,16,52.2,16.7,52.1L16.7,52.1z M14,31.5c2.5-0.5,2.7,2.6,0.9,3C12.6,35,11.8,31.9,14,31.5z
		 M102,57.6L102,57.6l0.1-0.6c-0.4-0.2-1.4-1.1-1.7-1.4c-4.2-4.5-4.3-9.9-5.7-15.7c-4.3-18.4-26.7-26.2-43.2-20.5
		c-1.3,0.5-3.5,1.2-3.7,2.4c0.8,0.3,2.1,1.1,2.8,1.6c4.2,2.9,8.5,8.5,7.8,13.9c-0.5,4.2-4.6,7.6-8.3,9.1c-1.3,0.5-2.2,0.6-3-0.6
		c-2.8-4.3-5.9-7.3-10.9-8.8c-0.6-0.2-1.2-0.2-1.7-0.4c1-0.5,3.8-0.1,4.9,0.2c2.7,0.8,6.8,3.2,8.6,5.3l0.6,0.8c0.8,1,3.3-1.4,4-2
		c1.4-1.4,2.3-3,2.3-5c0-2.5-2-5.3-3.7-6.9c-5.2-5-13.6-6.9-20.6-6.7C17,22.7,3.5,30.3,2.3,44.8c-1,12.3,8.1,20.1,18.8,23.3
		C23.6,68.9,29.2,70,32,70c0.9,0,1.1-0.1,1.4,0.7c0.2,0.6,1.2,3.5,1.6,3.6c1.2,0.4,3.4,0.5,4.7,0.6c2.6,0.1,5.6,0.2,8.2-0.2
		c2.5-0.3,1.9-0.6,2-2.2c1.3-11.4,18-12.5,21.2-1.7c0.6,2.1,0,3,0.8,3.4c2.3,1.3,12.5,1.5,14.7-0.2c0.4-0.3,0.5-0.8,0.8-1.3
		c2.8-5.5,6-9.5,7.4-15.7c0.3-1.1,0.2-2.6,0.7-3.5c0.6,0,0.9,1,1.3,1.4c1.3,1.3,2.7,2.2,4.4,2.8l0.4,0.2l0.1,0"/>
	<path id="path4" class="st0" d="M72.7,86.1c0.2,3.3,3.1,6.1,6.7,5.9c3.4-0.2,6.2-3,6-6.5c-0.2-3.4-3.1-6.1-6.7-5.9
		C75.3,79.8,72.6,82.6,72.7,86.1z"/>
	<path id="path6" class="st0" d="M36.1,86.1c0.2,3.3,3.1,6.1,6.7,5.9c3.4-0.2,6.2-3,6-6.5c-0.2-3.4-3.1-6.1-6.7-5.9
		C38.7,79.8,35.9,82.7,36.1,86.1L36.1,86.1z"/>
	<path id="path8" class="st1" d="M99.9,59.1c-0.7,0.6,1.9,0.7,2.6,1c0.3,0.1,0.3,0.3,0.4,0.6c0.1,0.5,0.2,2.1,0.5,2.3
		c0.3,0.3,1.3-1.9,1.5-2.2c0.2-0.2,0.4-0.3,0.7-0.2c0.6,0,2.1,0.5,2.4,0.2c0-0.5-1.5-1.7-1.7-2.3c-0.3-0.6,1.2-2.2,1-2.9
		c-0.4-0.2-2.1,1-2.7,1c-0.3,0-0.5-0.2-0.6-0.3l-1.3-1.3c-0.3-0.2-0.6-0.4-0.6,0.1c0,0.7,0.4,2.1,0.2,2.5c-0.1,0.2-0.3,0.3-0.5,0.4
		C101.2,58.3,100.3,58.7,99.9,59.1z"/>
	<path id="path10" class="st2" d="M107.3,55.6c0.2,0.7-1.3,2.2-1,2.9c0.3,0.6,1.8,1.7,1.7,2.3c-0.3,0.3-1.8-0.1-2.4-0.2
		c-0.3,0-0.5,0-0.7,0.2c-0.2,0.3-1.2,2.5-1.5,2.2c-0.3-0.2-0.4-1.8-0.5-2.3c-0.1-0.3-0.1-0.5-0.4-0.6c-0.7-0.3-3.3-0.4-2.6-1
		c0.4-0.4,1.3-0.8,1.9-1c0.2-0.1,0.4-0.3,0.5-0.4c0.2-0.5-0.3-1.9-0.2-2.5c0-0.6,0.3-0.4,0.6-0.1l1.3,1.3c0.1,0.1,0.4,0.4,0.6,0.3
		C105.2,56.6,106.8,55.4,107.3,55.6z M101.8,55c0,0.9,0.3,1.7,0.3,2.5c0,0.1-0.1,0.2-0.2,0.2c0,0,0,0,0,0l-0.2,0.1
		c-0.4,0.2-1.8,0.8-2,1.1c0,0,0,0.1-0.1,0.1c-0.1,0.1-0.1,0.3,0,0.4c0.4,0.5,2,0.5,2.8,0.8c0.4,0.3,0.3,2.9,1,2.9
		c0.8,0,1.4-2.5,1.8-2.5c0.9,0,1.7,0.3,2.6,0.3c0.5,0,0.5-0.4,0.3-0.7c-0.5-0.7-1.1-1.2-1.6-1.8c-0.2-0.2-0.1-0.4,0-0.6l0.1-0.2
		c0-0.1,0-0.1,0.1-0.2l0.7-1.4c0-0.1,0.1-0.5,0-0.6c-0.1-0.1-0.3-0.1-0.4-0.1c-0.5,0-1.8,1-2.3,1c-0.1,0-0.2,0-0.3-0.1
		c-0.3-0.3-1.7-1.8-2.1-1.8C102,54.6,101.8,54.7,101.8,55L101.8,55z"/>
	<path id="path12" class="st1" d="M62.5,8.9c-0.5,1.2-0.1,1.7,1,2.1l4.1,1.5c1.2,0.4,1.6,0.2,2.1-1.1c0.9-1.9,1.8-2.6,3.4-2.6
		c1.7,0,2.6,1.1,2.6,2.6c0,3-2.9,4.2-6,5.5c-3.6,1.6-7.6,3.5-7.6,8.8v3.2c0,1.2,0.4,1.7,1.7,1.7h17.5c1.2,0,1.7-0.4,1.7-1.7v-3.3
		c0-1.3-0.4-1.7-1.7-1.7H70.2v-0.2c0-1,2.5-1.3,4.6-2.1c5.9-2.1,8.8-4.4,8.8-10.5c0-5.1-3.7-9.2-10.3-9.2C67.3,2,64.1,4.8,62.5,8.9
		L62.5,8.9z M108.1,19.1h-2V4.3c0-1.2-0.4-1.7-1.6-1.7h-3.9c-1.3,0-1.8,0.3-2.5,1.2L86.3,18.2c-0.8,0.9-0.9,1.4-0.9,2.7v2.6
		c0,1.2,0.4,1.7,1.6,1.7h11.8v3.9c0,1.2,0.4,1.7,1.6,1.7h4c1.2,0,1.6-0.4,1.6-1.7v-3.9h2c1.2,0,1.6-0.4,1.6-1.7v-2.8
		C109.7,19.5,109.3,19.1,108.1,19.1L108.1,19.1z M98.8,19.1h-5.5l5.5-6.7V19.1z"/>
</g>
</svg>
